<svg width="835" height="835" viewBox="0 0 835 835" fill="none" xmlns="http://www.w3.org/2000/svg">
<path d="M490.5 640.5H611L142 116C121 138.5 49.5998 159.5 15.9998 401.5C-2.00019 735.1 312.833 818.833 472.5 819L430 730L490.5 640.5Z" fill="#9388C4"/>
<path d="M742.5 661L615 508L605 636H489.5L428 740L459 789.5L477.5 830C530.5 826.5 618.463 788.5 641.963 765L742.5 661Z" fill="#60529F"/>
<path d="M674.5 727L143.5 122.5C239.9 32.5 397.667 20 464.5 25C551 40.8333 739.7 118.4 802.5 302C865.3 485.6 743.333 661.833 674.5 727Z" fill="white"/>
<path d="M251.5 131.553C349.444 46.1015 570.249 67.029 635.389 301.652C635.461 301.913 635.5 302.19 635.5 302.46V355.345C635.5 355.81 635.608 356.27 635.817 356.686L697.078 479.21C698.132 481.318 696.456 483.762 694.11 483.538L624.094 476.848C622.403 476.687 620.916 477.96 620.814 479.655L611.673 632.174C611.576 633.782 610.227 635.027 608.617 634.994L489.712 632.587C488.651 632.566 487.658 633.106 487.1 634.009L424.943 734.528C424.362 735.467 424.344 736.649 424.896 737.605L467 810.553" stroke="url(#paint0_linear_209_3)" stroke-width="30"/>
<path d="M417.5 0C648.079 0 835 186.921 835 417.5C835 577.144 745.396 715.859 613.737 786.099L587.559 760.21C713.473 697.609 800 567.66 800 417.5C800 206.251 628.749 35 417.5 35C206.251 35 35 206.251 35 417.5C35 628.749 206.251 800 417.5 800C437.432 800 457.008 798.474 476.117 795.535L475.79 795.695L476.071 796.163L495.128 827.793C469.975 832.523 444.027 835 417.5 835C186.921 835 0 648.079 0 417.5C0 186.921 186.921 0 417.5 0Z" fill="url(#paint1_linear_209_3)"/>
<circle cx="617.5" cy="767.5" r="30" fill="white" stroke="#16104C" stroke-width="20"/>
<path d="M320.507 475.443C322.914 473.231 325.305 471.754 327 471L320.507 475.443C316.524 479.102 312.497 484.772 311.5 492.5C310.3 505.7 310 514.667 310 517.5C310.167 520 309.3 525.1 304.5 525.5C299.7 525.9 304.834 498 308 484L320.507 475.443Z" fill="#EFC9FF"/>
<path d="M327 471C322.5 473 313.1 480.1 311.5 492.5C310.3 505.7 310 514.667 310 517.5C310.167 520 309.3 525.1 304.5 525.5C299.7 525.9 304.834 498 308 484L327 471Z" stroke="#EFC9FF"/>
<path d="M223.334 295.358L211.183 283.658C210.8 283.289 210.196 283.284 209.807 283.647L180.9 310.627C180.651 310.859 180.537 311.203 180.598 311.538L195.409 392.504C195.466 392.816 195.654 393.075 195.938 393.216C214.155 402.275 254.488 429.448 253 423C251.642 417.113 209 410.5 203 359.5C198.368 320.126 216.001 305.306 223.406 296.704C223.747 296.308 223.71 295.72 223.334 295.358Z" fill="#EFC9FF" stroke="#EFC9FF" stroke-width="2"/>
<path d="M305.5 522C305.5 523.619 304.47 525.616 302.803 527.169C301.095 528.76 298.608 530 295.5 530C289.601 530 267.969 531.001 255.42 529.997L255.227 529.981L255.053 529.895C252.175 528.456 247.504 526.624 243.798 524.004C240.067 521.367 236.978 517.708 237.5 512.464V491.462L237.503 491.423C237.965 485.411 233.769 478.855 227.789 474.535C221.808 470.214 214.485 468.442 208.971 471.383C201.564 475.333 197.015 479.148 193.95 482.151C192.405 483.666 191.248 484.96 190.241 486.023C189.276 487.042 188.38 487.928 187.447 488.395C186.205 489.016 183.115 490.037 179.836 490.895C176.556 491.753 172.89 492.5 170.5 492.5C169.955 492.5 169.363 492.339 168.776 492.109C168.176 491.875 167.51 491.54 166.798 491.129C165.373 490.307 163.692 489.139 161.862 487.739C158.2 484.937 153.87 481.145 149.687 477.161C145.503 473.176 141.446 468.981 138.336 465.363C136.782 463.556 135.452 461.879 134.458 460.438C133.522 459.079 132.81 457.827 132.552 456.83C130.754 452.931 129.777 447.871 130.911 442.723C132.06 437.505 135.358 432.285 141.97 428.152C146.234 425.33 151.151 420.057 153.26 413.458C155.349 406.92 154.717 398.985 147.735 390.645L147.499 390.387C146.879 389.759 145.78 388.946 144.251 388.081C142.528 387.106 140.332 386.105 137.83 385.26C132.816 383.565 126.652 382.521 120.659 383.487C112.653 384.779 106.185 382.849 101.605 378.27C97.0598 373.724 94.5104 366.702 94.002 358.059L93.998 357.998L96.002 326.437L96.0039 326.417C96.5492 319.874 101.465 315.768 107.161 313.271C112.875 310.768 119.631 309.754 124.447 309.501L139.909 308.503L143.596 308.042C147.885 304.607 155.702 295.338 151.563 277.394C149.118 273.535 145.013 269.3 141.271 265.309C139.398 263.311 137.618 261.375 136.243 259.616C134.895 257.892 133.82 256.198 133.52 254.696C132.757 250.882 132.758 246.628 133.465 242.864C134.158 239.175 135.564 235.788 137.771 233.812C139.218 231.966 141.642 229.417 144.081 226.893C146.578 224.307 149.101 221.735 150.745 219.844L151.476 219.005L152.232 219.819L211.732 283.819L212.79 284.957L211.316 285.448C206.439 287.074 200.541 292.261 196.447 303.066C192.357 313.864 190.105 330.197 192.495 353.899C194.864 377.389 206.449 393.615 219.985 404.38C233.545 415.163 249.052 420.451 259.152 422.012L259.172 422.015L259.191 422.019C266.334 423.414 278.288 424.233 290.821 422.126C303.356 420.018 316.369 415.002 325.766 404.821L326.493 404.033L327.229 404.814L399.729 481.814L400.202 482.317L399.898 482.938C398.083 486.656 394.312 491.727 388.84 494.902C383.316 498.108 376.097 499.354 367.58 495.407C359.201 491.524 354.832 486.906 351.811 483.014C351.062 482.05 350.395 481.129 349.783 480.295C349.166 479.454 348.608 478.703 348.054 478.044C346.945 476.726 345.927 475.863 344.684 475.448L344.616 475.426L344.553 475.395C340.253 473.245 333.041 471.904 326.053 473.536C319.126 475.154 312.416 479.687 308.941 489.339C305.369 499.262 304.272 506.153 304.175 511.145C304.077 516.134 304.971 519.255 305.48 521.804L305.5 521.901V522Z" fill="#090A43" stroke="#090A43" stroke-width="2"/>
<path d="M126 493.5C121.173 498.206 123.5 505.5 123 510.5C122.75 513 119 513.334 116.5 513C114 511.667 110.818 507.354 106.5 508C103.553 508.441 101.334 510.334 100 512C98.3336 513.5 92.5003 518.5 92.5003 523.5C92.5003 528.061 101.724 530.33 101.5 536.5C101.361 540.344 102.5 543 98.0003 544C94.0182 544.885 90.1669 545.667 88.5003 547C88.0003 547.334 85.9182 549.934 86.5002 557.5C87.0003 564 91.0003 566.834 93.5003 567.5C96.1669 567.667 102.227 566.946 105 567.5C107.5 568 108.834 570.334 109 572C109 573.5 108.2 577.5 105 581.5C101.8 585.5 104 589.334 105.5 590.5C108 592 113.5 595.6 117.5 598C121.5 600.4 124.5 595.5 127.5 592.5C131 589.5 137.4 585.3 139 592.5C140.6 599.7 143 602.834 144 603.5C153.2 609.1 160 603.334 163 600C165.8 596.8 164 592.5 163.5 588.5C163.5 583.5 169.5 580 173.5 584C177.5 588 182.5 587.667 184.5 587C187.5 585.334 193.7 580.5 194.5 574.5C195.3 568.5 191.167 565.667 189 565C183.5 561 185 552.5 191.5 551.5C197.936 550.51 199.834 549.334 200 547.5C200.334 545.5 200.5 539.5 198.5 531.5C195.3 525.1 187.679 529.782 183.5 527C180.274 524.852 180.474 524.887 179.5 521C178.333 516.342 184 515.72 184 510.5C184 507 177.834 501 174 498C172.334 497.167 167.4 496.4 165 498C162 500 162.747 502.854 160 504.5C156.148 506.809 152 507 149.5 504.5C146.241 501.241 148.7 495.3 145.5 492.5C142.3 489.7 131.461 488.178 126 493.5Z" fill="#090A43"/>
<path d="M189 565C183.5 561 185 552.5 191.5 551.5C197.936 550.51 199.834 549.334 200 547.5C200.334 545.5 200.5 539.5 198.5 531.5C195.3 525.1 187.679 529.782 183.5 527C180.274 524.852 180.474 524.887 179.5 521C178.333 516.342 184 515.72 184 510.5C184 507 177.834 501 174 498C172.334 497.167 167.4 496.4 165 498C162 500 162.747 502.854 160 504.5C156.148 506.809 152 507 149.5 504.5C146.241 501.241 148.7 495.3 145.5 492.5C142.3 489.7 131.461 488.178 126 493.5C121.173 498.206 123.5 505.5 123 510.5C122.75 513 119 513.334 116.5 513C114 511.667 110.818 507.354 106.5 508C103.553 508.441 101.334 510.334 100 512C98.3336 513.5 92.5003 518.5 92.5003 523.5C92.5003 528.061 101.724 530.33 101.5 536.5C101.361 540.344 102.5 543 98.0003 544C94.0182 544.885 90.1669 545.667 88.5003 547C88.0003 547.334 85.9182 549.934 86.5002 557.5C87.0003 564 91.0003 566.834 93.5003 567.5C96.1669 567.667 102.227 566.946 105 567.5C107.5 568 108.834 570.334 109 572C109 573.5 108.2 577.5 105 581.5C101.8 585.5 104 589.334 105.5 590.5C108 592 113.5 595.6 117.5 598C121.5 600.4 124.5 595.5 127.5 592.5C131 589.5 137.4 585.3 139 592.5C140.6 599.7 143 602.834 144 603.5C153.2 609.1 160 603.334 163 600C165.8 596.8 164 592.5 163.5 588.5C163.5 583.5 169.5 580 173.5 584C177.5 588 182.5 587.667 184.5 587C187.5 585.334 193.7 580.5 194.5 574.5C195.3 568.5 191.167 565.667 189 565ZM189 565H189.5" stroke="#090A43"/>
<circle cx="143.5" cy="547.5" r="23" fill="#D9D9D9"/>
<path d="M224.5 570.5C220.1 566.5 214 568.833 211.5 570.5V574.5L224.5 589C233.5 586.667 249.8 582.1 243 582.5C234.5 583 230 575.5 224.5 570.5Z" fill="#EFC9FF" stroke="#EFC9FF"/>
<path d="M283.5 735.5C282.3 728.3 284 717.5 285 713L276.5 721.5C274.333 727.333 272 741.5 283.5 735.5Z" fill="#EFC9FF" stroke="#EFC9FF"/>
<path d="M338.5 694C339.5 694.727 339.667 707.833 337 709L318.5 695.5C319 688 321.2 673.4 326 675C332 677 327.5 686 338.5 694Z" fill="#EFC9FF" stroke="#EFC9FF"/>
<path d="M354 630.5C360.8 631.3 359.833 636.5 358.5 639L334 638L328 619C329 617.167 331.3 615 332.5 621C334 628.5 345.5 629.5 354 630.5Z" fill="#EFC9FF" stroke="#EFC9FF"/>
<path d="M292 581.5C293.2 559.9 285.5 552.833 281.5 552L276.5 558C281.167 574.833 290.8 603.1 292 581.5Z" fill="#EFC9FF" stroke="#EFC9FF"/>
<path d="M312.5 578C311.028 579.5 304.479 585.5 299 583.5C294.545 582.515 292.416 580.348 291.079 579.057C291.039 579.018 290.997 578.984 290.952 578.953C284.605 574.529 282.517 564.486 281.52 560.5C279.52 553 286.02 552 284.52 552C278.687 551.5 265.92 550.5 261.52 550.5C257.204 550.5 253.177 555.311 251.609 557.854C251.549 557.952 251.509 558.057 251.487 558.17C250.054 565.56 251.455 573.409 246.152 578.378C246.066 578.459 245.959 578.525 245.85 578.569C227.523 585.981 228.023 582.897 222.434 579.5C217.923 576.758 213.582 572.922 211.087 569.846C210.723 569.396 210.059 569.315 209.623 569.696C205.254 573.511 197.649 581.12 195.02 584.5C192.22 588.1 193.668 592.013 195.02 596.5C196.727 602.163 198.483 600.927 204.335 608.266C204.454 608.415 204.532 608.602 204.546 608.793C205.052 615.749 198.759 621.515 197.299 622.754C197.106 622.917 196.866 622.988 196.614 622.971C194.598 622.829 185.139 622.307 179.5 624.5C170.5 628 171.354 638.167 171.52 644C171.354 647.5 171.722 654.808 176 659C180.548 663.458 191.705 662.705 193.709 662.529C193.913 662.512 194.115 662.552 194.291 662.657C195.088 663.131 197.494 664.663 199.458 666.928C199.499 666.976 199.536 667.027 199.567 667.082C201.038 669.73 201.471 673.993 201.516 676.133C201.521 676.371 201.436 676.599 201.281 676.78L190.099 689.907C190.047 689.969 190.002 690.036 189.968 690.109C189.454 691.212 188.52 694.249 188.52 698.5C188.52 702.857 200.613 713.456 206.837 718.356C206.96 718.453 207.099 718.517 207.253 718.54C209.024 718.804 212.653 718.478 215.52 718C222.343 716.051 225.029 712.835 228.71 709.278C228.895 709.099 229.142 708.992 229.398 708.962C230.743 708.806 234.871 708.275 237.5 709.5C241.163 711.208 243.334 715.693 243.943 717.795C243.982 717.93 243.987 718.074 243.964 718.213C242.48 727.069 241.294 731.423 247.52 737.5C254.279 744.098 267.041 741.5 271.52 740.5C275.579 739.594 278.303 739.235 279.647 737.936C279.903 737.689 279.927 737.301 279.784 736.975C277.084 730.788 278.212 727.02 279.02 725C280.22 722 284.5 717 284.5 717C284.5 717 291.101 710.87 296.519 710.516C296.823 710.496 297.114 710.644 297.306 710.88C309.17 725.491 319.088 724.953 327.02 719.5C331.024 716.588 336.161 710.97 338.811 707.847C339.194 707.396 339.092 706.715 338.6 706.386L336.669 705.099C336.571 705.034 336.485 704.953 336.417 704.856C335.015 702.889 331.641 697.411 328.52 690C325.5 683.5 332.5 671 336.5 670.5C340.5 670 344.52 669.5 344.52 669.5C349.5 669.5 358.72 669.3 361.52 658.5C364.192 648.192 362.219 640.101 360.73 636.922C360.602 636.65 360.349 636.464 360.054 636.412C354.343 635.407 348.043 636.673 342 632.5C338.008 629.744 335.687 626.667 333.52 623.5C331.353 620.333 333.52 613.5 333.52 613.5C335.008 610.028 341.219 606.359 344.442 603.568C344.495 603.522 344.541 603.473 344.582 603.416C346.843 600.248 345.553 593.304 344.587 590.677C344.543 590.558 344.476 590.453 344.389 590.36L330.622 575.631C330.541 575.544 330.445 575.473 330.34 575.418C329.374 574.914 328.167 574.137 324 573C320.5 572.045 315 575.452 312.5 578Z" fill="#090A43" stroke="#090A43"/>
<circle cx="268" cy="648" r="38.5" fill="#D9D9D9"/>
<path d="M219.5 148L349.5 297.5L417.5 299L456.5 340" stroke="#461C75" stroke-width="22"/>
<circle cx="472" cy="362.053" r="33.5" fill="#461C75"/>
<circle cx="472.5" cy="362.5" r="20" fill="white"/>
<path d="M281.5 146L376.5 253L468.5 253L543 331.5L550 338.5" stroke="#834DA1" stroke-width="22"/>
<circle cx="563" cy="362" r="33.5" fill="#834DA1"/>
<circle cx="563.5" cy="362.447" r="20" fill="white"/>
<path d="M187.5 183.5L439 463.5" stroke="#231D67" stroke-width="22"/>
<circle cx="451" cy="482" r="33.5" fill="#231D67"/>
<circle cx="451.5" cy="482.447" r="20" fill="white"/>
<defs>
<linearGradient id="paint0_linear_209_3" x1="475.75" y1="86.3849" x2="475.75" y2="810.553" gradientUnits="userSpaceOnUse">
<stop stop-color="#8B63AA"/>
<stop offset="0.90866" stop-color="#0A0B44"/>
</linearGradient>
<linearGradient id="paint1_linear_209_3" x1="660.694" y1="84.8906" x2="64.7125" y2="628.163" gradientUnits="userSpaceOnUse">
<stop stop-color="#8B63AA"/>
<stop offset="0.658656" stop-color="#0A0B44"/>
</linearGradient>
</defs>
</svg>
