<svg width="835" height="837" viewBox="0 0 835 837" fill="none" xmlns="http://www.w3.org/2000/svg">
<path d="M388.856 0.955017C288.149 7.99042 194.579 50.4037 123.019 121.461C90.455 153.723 65.6301 187.996 44.524 229.505C21.1062 275.838 7.3369 322.975 1.20607 377.75C-0.402022 392.826 -0.402022 443.079 1.20607 458.155C7.3369 512.93 21.1062 560.067 44.524 606.4C85.4297 687.106 148.246 749.922 229.052 790.929C295.888 824.799 371.066 840.176 444.637 835.051C467.552 833.442 495.894 829.422 495.894 827.814C495.894 827.312 493.281 822.789 489.965 817.663C486.748 812.537 483.13 806.507 482.025 804.296C480.819 801.984 471.069 786.205 460.315 769.32L440.817 738.465L461.019 705.097C472.075 686.704 484.638 666 488.758 658.965L496.397 646.1H506.95C512.779 646.201 538.911 646.603 565.143 647.105C607.254 647.909 613.184 647.809 616.602 646.402C621.426 644.492 625.245 640.07 626.049 635.748C626.351 633.939 628.562 600.27 630.974 560.871C633.386 521.373 635.597 489.01 635.798 488.809C635.899 488.708 650.371 490.015 667.759 491.925C702.936 495.643 703.74 495.643 708.966 489.714C714.393 483.482 713.69 480.165 701.529 455.14C695.699 443.28 682.835 416.545 672.784 395.841C662.734 375.137 654.392 357.247 654.291 356.142C654.09 355.036 653.588 353.227 652.984 352.121C651.276 348.905 650.673 342.372 649.668 320.965C648.663 297.044 647.457 290.712 639.617 267.797C620.722 212.62 600.119 177.443 566.952 143.673C554.791 131.411 545.343 123.572 531.373 114.325C510.769 100.757 485.241 88.6963 458.205 79.6508C416.495 65.8815 387.851 63.9719 340.111 71.8114C319.809 75.1281 302.019 81.0579 281.315 91.3094C267.948 97.9428 263.526 100.757 254.983 107.993C249.254 112.818 244.63 117.24 244.63 117.843C244.63 120.758 260.209 138.246 261.214 136.537C262.018 135.23 278.601 123.974 285.335 120.155C293.275 115.632 311.165 107.692 319.407 104.878C344.734 96.3347 389.861 92.5156 414.485 96.6363C451.169 102.868 499.111 123.572 528.257 145.784C540.921 155.332 556.901 172.116 569.163 188.498C587.053 212.419 598.209 233.927 610.873 269.003C620.521 295.637 621.325 300.261 622.431 331.015L623.235 357.147L642.632 396.846C666.653 446.195 675.498 464.587 675.397 464.889C675.297 464.989 665.347 463.984 653.185 462.678C624.541 459.461 621.325 459.461 615.898 462.678C612.682 464.587 611.275 466.195 610.169 469.411C609.064 472.527 607.656 488.608 605.445 526.499C601.425 593.033 599.717 619.064 599.114 619.667C598.812 619.868 573.987 619.768 543.936 619.265C512.076 618.763 487.854 618.763 485.743 619.265C483.633 619.768 480.718 621.577 479.009 623.285C475.391 627.306 412.676 731.329 411.269 735.852C409.862 740.575 410.867 742.585 430.566 773.742C440.114 788.718 447.652 801.18 447.451 801.381C447.25 801.582 440.516 802.185 432.375 802.788C418.505 803.693 390.163 802.587 373.278 800.276C333.276 794.949 301.818 786.607 265.234 771.531C253.776 766.908 231.163 755.249 218.499 747.611C191.162 731.128 167.04 712.333 145.029 690.323C110.154 655.548 82.515 614.943 63.821 571.123C45.4285 527.705 36.584 489.915 33.1668 439.863C31.2572 411.42 32.9658 383.178 38.6946 350.614C47.8406 298.15 68.9468 246.088 98.6964 202.368C114.375 179.252 129.15 161.663 148.849 142.467C168.347 123.471 179.704 114.225 201.916 99.1489C227.846 81.4599 250.359 69.9019 280.31 58.6452C319.608 43.8709 353.277 36.735 397.499 33.6193C449.762 29.9006 509.764 39.7501 560.519 60.3538C581.224 68.6957 591.877 73.721 606.048 81.7615C666.553 116.335 711.68 160.357 747.661 219.957C773.792 263.274 791.582 314.231 798.919 366.795C800.828 380.363 803.743 421.671 802.939 422.978C802.537 423.581 802.135 429.611 801.833 436.345C801.431 450.315 800.527 460.868 799.019 470.718C797.913 477.753 797.31 481.975 797.009 484.286C796.908 485.693 795.3 493.533 793.491 501.875C774.496 589.315 722.032 671.428 650.974 724.595C645.849 728.414 641.326 731.53 640.823 731.53C640.321 731.53 637.205 730.324 633.989 728.816C628.863 726.404 626.753 726.103 618.511 726.103C609.868 726.002 608.36 726.404 602.229 729.218C592.882 733.64 587.053 739.269 582.53 748.415C579.012 755.651 578.811 756.556 578.811 765.702C578.811 774.848 579.012 775.752 582.53 782.989C587.053 792.135 592.882 797.763 602.229 802.185C608.26 804.999 609.868 805.401 618.612 805.401C627.657 805.401 628.662 805.2 635.899 801.582C649.467 794.848 657.507 782.788 658.512 767.41L659.015 759.169L666.653 753.641C687.156 738.867 716.303 711.831 734.293 690.825C756.304 665.196 774.697 637.356 790.476 606.4C813.894 560.067 827.663 512.93 833.794 458.155C835.402 443.079 835.402 392.826 833.794 377.75C827.663 322.975 813.894 275.838 790.476 229.505C755.4 160.457 703.74 103.772 638.311 62.9669C612.079 46.5845 574.691 29.2975 545.645 19.9506C495.995 4.07068 440.114 -2.66315 388.856 0.955017ZM628.361 748.314C634.492 751.229 638.11 759.169 637.406 768.616C636.904 775.451 634.089 779.974 628.763 782.687C622.732 785.602 618.813 786.004 612.581 784.094C605.043 781.682 600.923 777.36 599.415 770.426C598.51 765.702 598.611 764.295 600.42 759.47C602.832 752.938 605.546 750.224 612.079 747.611C617.506 745.5 622.632 745.701 628.361 748.314Z" fill="white"/>
<path d="M217.192 142.568C212.971 146.588 209.453 150.206 209.453 150.608C209.453 151.111 237.595 183.574 272.068 222.771C306.441 261.868 335.99 295.638 337.698 297.547C344.131 304.884 342.623 304.583 379.106 305.085L411.972 305.487L418.505 312.322C422.123 316.04 429.56 323.98 435.088 329.91L445.038 340.765L443.329 343.679C438.003 353.026 438.907 366.796 445.44 376.746C461.621 401.068 499.11 393.631 505.04 364.886C509.462 343.378 490.567 323.277 468.355 325.99L463.029 326.694L443.732 305.99C433.078 294.633 423.63 284.884 422.625 284.281C421.62 283.778 405.841 283.075 387.448 282.673L354.181 281.969L315.687 238.149C294.581 214.128 267.545 183.373 255.686 169.805C243.826 156.237 232.067 142.869 229.554 140.256L224.931 135.331L217.192 142.568ZM482.627 341.267C488.758 344.182 492.376 352.122 491.673 361.569C491.17 368.404 488.356 372.927 483.029 375.64C476.999 378.555 473.079 378.957 466.848 377.047C459.31 374.635 455.189 370.313 453.682 363.378C450.365 346.996 467.149 334.131 482.627 341.267Z" fill="white"/>
<path d="M281.717 139.854C277.998 142.165 273.877 144.98 272.47 146.085L269.857 148.095L316.592 199.353C342.221 227.495 365.538 252.822 368.252 255.435L373.277 260.36L419.208 260.058L465.139 259.757L492.678 289.909C507.854 306.391 523.935 323.98 528.357 328.804L536.498 337.749L534.287 341.87C521.322 366.393 542.328 395.037 569.565 389.811C582.228 387.399 592.781 376.946 595.495 363.881C599.817 342.875 581.726 322.975 559.715 324.683L555.695 324.985L515.995 281.768C483.23 246.189 475.692 238.45 472.778 237.746C470.667 237.143 451.37 237.043 425.842 237.344L382.423 237.947L337.899 189.202C313.376 162.267 292.571 139.251 291.566 137.944C290.561 136.638 289.355 135.532 289.054 135.633C288.652 135.633 285.335 137.542 281.717 139.854ZM573.082 340.262C579.213 343.176 582.831 351.116 582.128 360.564C581.625 367.398 578.811 371.921 573.484 374.635C567.454 377.549 563.534 377.951 557.303 376.042C549.765 373.63 545.644 369.308 544.137 362.373C543.232 357.649 543.333 356.242 545.142 351.418C547.554 344.885 550.268 342.171 556.8 339.558C562.228 337.448 567.354 337.649 573.082 340.262Z" fill="white"/>
<path d="M185.333 176.438C182.318 180.257 179.302 183.976 178.599 184.88C177.393 186.388 182.217 192.117 220.711 234.731C304.633 327.498 358.906 387.6 391.671 423.782L424.636 460.265L422.626 463.683C414.485 477.552 419.511 497.151 433.581 506.598C452.879 519.463 479.211 508.508 483.935 485.492C488.357 464.085 469.16 443.682 447.451 446.597C442.928 447.2 442.325 447.099 440.818 444.989C439.913 443.682 430.767 433.33 420.516 421.973C396.595 395.54 327.347 318.955 273.275 259.154C207.846 186.589 192.368 169.704 191.464 169.704C191.062 169.704 188.247 172.719 185.333 176.438ZM461.522 461.873C467.653 464.788 471.271 472.728 470.568 482.176C470.065 489.01 467.251 493.533 461.924 496.246C455.894 499.161 451.974 499.563 445.743 497.653C438.205 495.241 434.084 490.92 432.576 483.985C431.672 479.261 431.772 477.854 433.581 473.03C435.994 466.497 438.707 463.783 445.24 461.17C450.667 459.059 455.793 459.26 461.522 461.873Z" fill="white"/>
<path d="M146.938 217.143C145.029 219.555 141.008 224.982 137.993 229.304C133.068 236.44 132.666 237.646 132.666 242.47C132.867 252.923 133.671 254.832 141.511 263.074C150.958 273.024 152.566 276.039 152.566 283.979C152.566 291.115 149.853 296.241 143.521 300.964C140.104 303.577 138.998 303.778 124.023 304.884C109.048 305.99 107.741 306.191 103.218 309.005C95.0772 314.03 93.6702 317.849 92.3636 338.051C90.7555 363.479 92.9666 371.218 103.821 377.148C108.444 379.56 110.756 380.062 123.118 381.067C135.782 381.972 137.692 382.374 141.511 384.886C147.24 388.404 151.762 397.148 151.561 404.083C151.36 410.113 149.149 413.531 140.104 422.476C132.465 430.013 130.053 433.833 128.244 441.17C125.832 450.818 130.053 458.054 148.747 476.447C158.898 486.397 164.929 489.714 172.768 489.714C180.909 489.714 185.13 487.704 193.372 479.764C202.518 470.919 208.045 467.804 214.98 467.804C221.513 467.804 228.549 471.723 232.368 477.452C234.88 481.271 235.182 482.779 236.187 497.553C237.192 512.629 237.393 513.634 240.207 517.654C242.217 520.669 245.032 522.881 249.152 524.991L255.183 528.006L274.781 527.906C297.093 527.906 299.707 527.403 305.536 521.373L309.456 517.353L309.958 502.076C310.461 487.603 310.662 486.498 313.275 482.075C318.2 473.934 330.562 467.603 338.301 469.412C343.929 470.618 343.929 470.618 354.08 480.467C362.12 488.307 363.628 489.312 369.96 491.221C376.493 493.231 377.297 493.231 382.825 491.824C388.754 490.216 396.393 485.09 398.403 481.171C399.308 479.563 398.705 478.457 395.187 474.537C383.729 461.974 328.552 403.279 327.547 402.676C326.944 402.274 323.526 404.083 319.908 406.596C306.641 415.943 293.777 420.063 277.294 420.365C251.564 420.666 227.242 407.5 212.468 385.188C205.131 374.032 202.417 365.589 201.211 350.112C200.307 337.448 200.307 336.744 202.92 327.598C206.035 316.342 210.96 306.291 217.594 297.547C220.609 293.527 222.217 290.612 221.714 289.708C221.111 288.602 207.141 273.426 177.291 241.666C163.22 226.59 152.767 215.434 151.662 214.128C150.657 213.022 149.752 213.625 146.938 217.143Z" fill="white"/>
<path d="M131.763 488.407C127.943 489.311 124.627 490.417 124.225 490.718C123.923 491.12 123.119 495.04 122.617 499.663C121.612 507.101 121.21 508.005 118.797 509.211C116.385 510.317 115.682 510.116 111.159 507.302C106.536 504.487 105.732 504.286 102.616 505.291C100.304 506.096 98.0933 508.106 95.5807 511.724C89.7513 520.267 89.7513 521.573 95.8822 527.503C100.405 531.925 101.008 532.931 100.405 535.343C99.6009 538.559 98.0933 540.569 96.4852 540.569C92.5655 540.569 87.5402 542.981 85.9321 545.695C84.2235 548.509 84.2235 549.212 85.5301 555.444C86.2337 559.162 87.5402 562.68 88.4448 563.283C89.2488 563.987 93.269 564.791 97.3898 565.193C103.722 565.796 105.028 566.198 106.335 568.308C107.842 570.52 107.742 571.022 104.827 576.65C102.013 581.977 101.812 583.083 102.817 585.495C103.923 588.209 107.842 591.324 114.476 594.942C118.295 597.154 120.908 596.149 126.637 590.319C129.049 587.807 131.461 585.796 132.064 585.796C134.275 585.796 137.793 590.52 138.497 594.44C139.904 601.877 143.723 603.686 153.673 601.576C158.598 600.571 160.005 599.767 161.814 597.154C163.723 594.339 163.824 593.334 163.02 589.314C162.216 585.394 162.316 584.389 163.723 582.781C166.638 579.565 168.749 579.565 174.779 582.58C177.895 584.188 181.412 585.294 182.417 585.093C184.93 584.389 191.161 577.253 192.971 573.032C194.177 570.218 194.177 569.314 192.77 566.499C191.965 564.69 189.654 562.178 187.744 560.871C181.513 556.851 183.523 551.725 192.368 548.911C199.905 546.499 201.011 544.187 198.8 534.941C197.996 531.222 196.89 527.403 196.388 526.398C195.182 524.287 190.86 523.382 187.141 524.689C184.93 525.493 183.724 525.292 181.814 524.086C177.191 521.071 176.99 519.161 180.407 513.533C183.221 509.01 183.423 508.307 182.317 504.99C181.111 501.271 173.975 495.241 169.352 494.035C166.337 493.231 162.015 495.442 159.804 498.859C155.381 505.694 148.145 503.884 146.135 495.442C144.225 487.201 141.512 485.994 131.763 488.407ZM154.376 524.991C162.015 530.016 166.94 540.167 165.633 548.107C163.02 564.389 146.235 572.932 132.165 565.193C124.325 560.871 121.21 556.449 119.903 548.207C118.898 542.177 118.998 540.971 120.808 537.152C124.526 529.312 129.451 524.79 137.089 522.377C141.311 520.97 150.356 522.377 154.376 524.991Z" fill="white"/>
<path d="M261.215 548.308C253.375 550.017 251.164 553.032 250.159 563.485C249.254 571.726 247.244 575.143 241.917 577.354C238.902 578.661 238.199 578.561 234.782 576.852C232.771 575.847 229.455 573.133 227.445 570.922C222.721 565.696 217.193 563.987 211.866 566.198C209.856 567.002 205.132 570.42 201.414 573.736C190.358 583.586 189.052 590.521 196.891 598.863C202.218 604.491 203.725 608.411 202.419 612.431C200.509 618.16 197.595 619.667 187.142 620.471C177.795 621.175 174.076 622.582 172.669 625.798C172.267 626.703 171.363 631.728 170.76 636.854C168.347 654.342 171.765 658.965 188.047 660.674C193.373 661.277 194.78 661.88 196.891 664.392C198.298 666 199.705 668.412 200.007 669.719C200.811 673.036 197.896 678.664 193.675 681.88C191.765 683.287 189.353 686.503 188.348 688.815C185.634 695.046 187.242 699.067 195.383 707.811C206.64 719.67 211.665 720.474 222.419 711.73C225.334 709.318 228.852 707.107 230.058 706.806C236.691 705.097 244.631 714.545 242.521 721.58C241.214 726.103 243.325 733.239 246.742 735.751C248.35 736.957 252.772 738.163 259.003 738.967C270.361 740.575 275.285 739.771 279.205 735.651C281.718 733.038 281.919 732.234 283.225 719.771C283.828 714.042 290.663 708.816 295.989 709.921C297.698 710.323 301.316 712.936 304.231 715.751C313.779 725.198 319.608 724.796 331.468 713.841C342.624 703.489 343.328 697.258 334.483 687.408C331.97 684.594 329.96 681.277 329.558 679.167C328.955 676.051 329.357 675.146 332.272 672.031C335.488 668.614 335.991 668.412 344.634 667.709C357.7 666.704 359.71 664.995 360.916 653.94C362.524 640.07 360.916 631.527 356.393 629.115C355.489 628.612 351.77 627.909 348.152 627.507C337.297 626.301 333.88 623.989 332.573 616.552C331.87 613.134 332.171 612.632 337.498 607.406C348.453 596.752 348.252 591.727 336.895 579.264C326.744 568.309 320.01 567.203 311.065 575.244C309.055 577.053 306.342 579.063 305.035 579.666C301.919 581.375 296.794 580.269 293.577 577.354C291.467 575.445 290.964 573.837 290.361 566.6C289.557 557.153 287.949 552.329 285.034 550.721C284.029 550.218 279.406 549.213 274.682 548.71C266.039 547.605 264.632 547.504 261.215 548.308ZM274.28 605.496C288.251 607.808 300.814 620.773 304.432 636.552C307.447 649.216 303.728 661.277 293.979 671.026C278.2 686.805 255.586 686.805 238.902 670.925C232.369 664.694 228.952 657.859 227.545 648.311C226.741 642.281 226.842 639.869 228.148 635.246C231.364 623.989 238.701 614.542 247.948 609.717C253.375 606.903 264.531 603.888 267.747 604.39C269.154 604.692 272.069 605.094 274.28 605.496Z" fill="white"/>
</svg>
